# AST/ASF file generated using VICON BodyLanguage
# -----------------------------------------------
:version 1.10
:name VICON
:units
  mass 1.0
  length 0.45
  angle deg
:documentation
   .ast/.asf automatically generated from VICON data using
   VICON BodyBuilder and BodyLanguage model FoxedUp or BRILLIANT.MOD
:root
   order TX TY TZ RX RY RZ
   axis XYZ
   position 0 0 0  
   orientation 0 0 0 
:bonedata
  begin
     id 1 
     name lhipjoint
     direction 0.711131 -0.61297 0.344326 
     length 2.29162 
     axis 0 0 0  XYZ
  end
  begin
     id 2 
     name lfemur
     direction 0.34202 -0.939693 0  
     length 6.71424  
     axis 0 0 20  XYZ
    dof rx ry rz
    limits (-160.0 20.0)
           (-70.0 70.0)
           (-60.0 70.0)
  end
  begin
     id 3 
     name ltibia
     direction 0.34202 -0.939693 0   
     length 6.7087   
     axis 0 0 20   XYZ
    dof rx
    limits (-10.0 170.0)
  end
  begin
     id 4 
     name lfoot
     direction 0.0230374 -0.0632947 0.997729   
     length 1.56743   
     axis -90 7.62852e-016 20   XYZ
    dof rx rz
    limits (-45.0 90.0)
           (-70.0 20.0)
  end
  begin
     id 5 
     name ltoes
     direction 1.53585e-011 -4.21885e-011 1   
     length 0.802914   
     axis -90 7.62852e-016 20   XYZ
    dof rx
    limits (-90.0 20.0)
  end
  begin
     id 6 
     name rhipjoint
     direction -0.733192 -0.592884 0.333043   
     length 2.36925  
     axis 0 0 0  XYZ 
  end
  begin
     id 7 
     name rfemur
     direction -0.34202 -0.939693 0   
     length 6.67027   
     axis 0 0 -20   XYZ
    dof rx ry rz
    limits (-160.0 20.0)
           (-70.0 70.0)
           (-70.0 60.0)
  end
  begin
     id 8 
     name rtibia
     direction -0.34202 -0.939693 0   
     length 6.6862   
     axis 0 0 -20   XYZ
    dof rx
    limits (-10.0 170.0)
 end
 begin
     id 9 
     name rfoot
     direction -0.0949739 -0.260939 0.960672   
     length 1.67698  
     axis -90 -7.62852e-016 -20   XYZ
    dof rx rz
    limits (-45.0 90.0)
           (-20.0 70.0)
  end
  begin
     id 10 
     name rtoes
     direction -1.5353e-011 -4.21868e-011 1   
     length 0.846298   
     axis -90 -7.62852e-016 -20   XYZ
    dof rx
    limits (-90.0 20.0)
  end
  begin
     id 11 
     name lowerback
     direction -0.0206828 0.999785 -0.00109866   
     length 2.04382   
     axis 0 0 0   XYZ
    dof rx ry rz
    limits (-20.0 45.0)
           (-30.0 30.0)
           (-30.0 30.0)
  end
  begin
     id 12 
     name upperback
     direction -0.0105003 0.999727 -0.0208904   
     length 2.04538   
     axis 0 0 0   XYZ
    dof rx ry rz
    limits (-20.0 45.0)
           (-30.0 30.0)
           (-30.0 30.0)
  end
  begin
     id 13 
     name thorax
     direction -0.000416255 0.999808 -0.0196023   
     length 2.0399   
     axis 0 0 0   XYZ
    dof rx ry rz
    limits (-20.0 45.0)
           (-30.0 30.0)
           (-30.0 30.0)
  end
  begin
     id 14 
     name lowerneck
     direction 0.0627861 0.989205 0.13241   
     length 1.46207   
     axis 0 0 0   XYZ
    dof rx ry rz
    limits (-20.0 45.0)
           (-30.0 30.0)
           (-30.0 30.0)
  end
  begin
     id 15 
     name upperneck
     direction 0.00627179 0.994526 0.104303   
     length 1.41419   
     axis 0 0 0   XYZ
    dof rx ry rz
    limits (-20.0 45.0)
           (-30.0 30.0)
           (-30.0 30.0)
  end
  begin
     id 16
     name head
     direction -0.00443838 0.999688 0.0245968  
     length 1.50718  
     axis 0 0 0   XYZ
    dof rx ry rz
    limits (-20.0 45.0)
           (-30.0 30.0)
           (-30.0 30.0)
  end
  begin
     id 17 
     name lclavicle
     direction 0.758742 0.650995 -0.0227258  
     length 2.86888  
     axis 0 0 0   XYZ
    dof ry rz
    limits (-20.0 10.0)
           (0.0 20.0)
  end
  begin
     id 18 
     name lhumerus
     direction 1 -4.48962e-011 1.06664e-027   
     length 4.65776   
     axis -180 -30 -90   XYZ
    dof rx ry rz
    limits (-60.0 90.0)
           (-90.0 90.0)
           (-90.0 90.0)
  end
  begin
     id 19
     name lradius
     direction 1 -4.48968e-011 1.40404e-026   
     length 3.55539   
     axis -180 -30 -90   XYZ
    dof rx
    limits (-10.0 170.0)
  end
  begin
     id 20
     name lwrist
     direction 1 -4.48976e-011 3.32647e-026   
     length 1.77769   
     axis -2.20186e-014 90 90   XYZ
    dof ry
    limits (-180.0 0.0)
 end
  begin
     id 21 
     name lhand
     direction 1 -4.48982e-011 6.65293e-026   
     length 0.707264   
     axis -4.24514e-014 90 90   XYZ
    dof rx rz
    limits (-90.0 90.0)
           (-45.0 45.0)
  end
  begin
     id 22 
     name lfingers
     direction 1 -4.48966e-011 1.33059e-025   
     length 0.570215   
     axis -8.49028e-014 90 90   XYZ
    dof rx
    limits (0.0 90.0)
  end
  begin
     id 23
     name lthumb
     direction 0.707107 -6.3493e-011 0.707107   
     length 0.818718   
     axis -90 45 2.85299e-015   XYZ
    dof rx rz
    limits (-45.0 45.0)
           (-45.0 45.0)
  end
  begin
     id 24 
     name rclavicle
     direction -0.870343 0.482028 -0.100759   
     length 3.2251  
     axis 0 0 0   XYZ 
    dof ry rz
    limits (-10.0 20.0)
           (-20.0 0.0)
  end
  begin
     id 25 
     name rhumerus
     direction -1 -4.48974e-011 -9.45849e-028  
     length 4.71925   
     axis -180 30 90   XYZ
    dof rx ry rz
    limits (-90.0 60.0)
           (-90.0 90.0)
           (-90.0 90.0)
  end
  begin
     id 26 
     name rradius
     direction -1 -4.48965e-011 1.17607e-026   
     length 3.5699   
     axis -180 30 90   XYZ
    dof rx
    limits (-10.0 170.0)
  end
  begin
     id 27 
     name rwrist
     direction -1 -4.48968e-011 3.32647e-026   
     length 1.78495   
     axis -2.20186e-014 -90 -90   XYZ
    dof ry
    limits (-180.0 0.0)
  end
  begin
     id 28
     name rhand
     direction -1 -4.48995e-011 6.65293e-026   
     length 0.507757   
     axis -4.24514e-014 -90 -90   XYZ
    dof rx rz
    limits (-90.0 90.0)
           (-45.0 45.0)
  end
  begin
     id 29
     name rfingers
     direction -1 -4.48864e-011 1.33059e-025   
     length 0.409367   
     axis -8.49028e-014 -90 -90   XYZ
    dof rx
    limits (0.0 90.0)
  end
  begin
     id 30
     name rthumb
     direction -0.707107 -6.3494e-011 0.707107   
     length 0.587771   
     axis -90 -45 -2.85299e-015   XYZ
    dof rx rz
    limits (-45.0 45.0)
           (-45.0 45.0)
  end
:hierarchy
  begin
    root lhipjoint rhipjoint lowerback
    lhipjoint lfemur
    lfemur ltibia
    ltibia lfoot
    lfoot ltoes
    rhipjoint rfemur
    rfemur rtibia
    rtibia rfoot
    rfoot rtoes
    lowerback upperback
    upperback thorax
    thorax lowerneck lclavicle rclavicle
    lowerneck upperneck
    upperneck head
    lclavicle lhumerus
    lhumerus lradius
    lradius lwrist
    lwrist lhand lthumb
    lhand lfingers
    rclavicle rhumerus
    rhumerus rradius
    rradius rwrist
    rwrist rhand rthumb
    rhand rfingers
  end

#!OML:ASF E:\Steps\Project 1\Capture day 1\Session 2\Subject.ASF
:FULLY-SPECIFIED
:DEGREES
34
root 16.2965 16.3608 20.7533 -154.889 -2.41101 174.937
lowerback -31.3798 -2.96634 -10.2912
upperback -0.797659 -0.740648 -1.1825
thorax 15.5281 -1.33038 3.84954
lowerneck -7.23698 -2.54413 0.29498
upperneck 1.3555 -3.60397 3.0819
head 1.70869 -1.75643 0.784757
rclavicle 1.00883e-014 2.46493e-014
rhumerus -33.3832 -15.9 -81.9347
rradius 33.7739
rwrist -7.82349
rhand -17.3428 -259.04
rfingers 7.12502
rthumb 8.90454 130.753
lclavicle 1.00883e-014 2.46493e-014
lhumerus -27.6497 2.00246 83.3234
lradius 23.1969
lwrist -3.30982
lhand -21.2074 -12.4145
lfingers 7.12502
lthumb 5.1741 17.5024
rfemur -22.1028 7.28614 15.5233
rtibia 6.25377
rfoot -17.5383 -2.94269
rtoes -18.5456
lfemur -23.0466 -11.5475 -24.9498
ltibia 9.70808
lfoot -8.01392 -2.83854
ltoes -33.3379
35
root 16.2982 16.3601 20.7553 -154.878 -2.3913 174.998
lowerback -31.3271 -2.96651 -10.2392
upperback -0.835442 -0.776261 -1.14527
thorax 15.4661 -1.34033 3.84993
lowerneck -7.23531 -2.47761 0.171468
upperneck 1.41679 -3.50773 3.16161
head 1.73165 -1.70596 0.834399
rclavicle 3.926e-015 -1.03368e-014
rhumerus -33.35 -15.1235 -82.4585
rradius 34.5365
rwrist -9.80567
rhand -18.2632 -256.051
rfingers 7.12502
rthumb 8.01629 133.777
lclavicle 3.926e-015 -1.03368e-014
lhumerus -27.6474 2.10366 83.2695
lradius 23.0156
lwrist -3.40571
lhand -21.1237 -12.6798
lfingers 7.12502
lthumb 5.2549 17.235
rfemur -22.1331 7.32264 15.5961
rtibia 6.25798
rfoot -17.4305 -2.95445
rtoes -18.6661
lfemur -23.0734 -11.5013 -24.8794
ltibia 9.72851
lfoot -7.97882 -2.79091
ltoes -32.8413
36
root 16.3007 16.3587 20.7553 -154.901 -2.41042 175.025
lowerback -31.2583 -2.98614 -10.2589
upperback -0.871774 -0.814655 -1.09206
thorax 15.3988 -1.3565 3.90527
lowerneck -6.98031 -2.34525 -0.0813515
upperneck 1.28346 -3.30725 3.30867
head 1.64858 -1.60783 0.934599
rclavicle -1.08835e-014 2.22639e-014
rhumerus -33.4094 -16.2291 -81.6813
rradius 33.3079
rwrist -7.15099
rhand -18.0304 -265.285
rfingers 7.12502
rthumb 8.241 124.534
lclavicle -1.08835e-014 2.22639e-014
lhumerus -27.5928 2.34765 83.2499
lradius 22.6533
lwrist -3.71184
lhand -21.3815 -13.0137
lfingers 7.12502
lthumb 5.00597 16.9071
rfemur -22.098 7.37395 15.6406
rtibia 6.24713
rfoot -17.4203 -3.01369
rtoes -18.5057
lfemur -23.0765 -11.4144 -24.8536
ltibia 9.77225
lfoot -7.93791 -2.93622
ltoes -32.7455
37
root 16.3021 16.3585 20.7523 -154.986 -2.47159 175.085
lowerback -31.1973 -2.99046 -10.1927
upperback -0.868968 -0.850052 -1.06381
thorax 15.3819 -1.36533 3.88899
lowerneck -6.83436 -2.29219 -0.200976
upperneck 1.18167 -3.22648 3.40812
head 1.5931 -1.56905 0.991056
rclavicle -3.8763e-015 -2.5842e-014
rhumerus -33.5347 -18.2596 -80.2995
rradius 31.3764
rwrist -2.61502
rhand -12.2924 -431.686
rfingers 7.12502
rthumb 13.7752 101.21
lclavicle -3.8763e-015 -2.5842e-014
lhumerus -27.5676 2.53873 83.1818
lradius 22.3483
lwrist -3.97856
lhand -21.6527 -13.1856
lfingers 7.12502
lthumb 4.74414 16.7413
rfemur -21.9993 7.45206 15.7274
rtibia 6.26876
rfoot -17.4967 -3.09474
rtoes -18.5359
lfemur -23.0085 -11.4004 -24.7759
ltibia 9.83147
lfoot -7.96311 -3.01376
ltoes -32.668
38
root 16.3075 16.3577 20.7505 -155.038 -2.42135 175.141
lowerback -31.1801 -2.98663 -10.1728
upperback -0.848566 -0.849514 -1.058
thorax 15.3991 -1.36355 3.88592
lowerneck -6.91454 -2.30673 -0.077162
upperneck 1.18867 -3.25486 3.31718
head 1.60533 -1.58401 0.939316
rclavicle -8.94531e-015 1.11319e-014
rhumerus -33.5698 -18.916 -79.8899
rradius 30.7452
rwrist -1.29177
rhand -8.67933 -415.034
rfingers 7.12502
rthumb 17.2551 275.712
lclavicle -8.94531e-015 1.11319e-014
lhumerus -27.5855 2.56779 83.0614
lradius 22.2704
lwrist -3.88709
lhand -21.4396 -13.1712
lfingers 7.12502
lthumb 4.9499 16.751
rfemur -21.9947 7.44084 15.8564
rtibia 6.35982
rfoot -17.5747 -2.96985
rtoes -18.7431
lfemur -22.9553 -11.1713 -24.7333
ltibia 9.84607
lfoot -8.03029 -3.11852
ltoes -33.0572
39
root 16.3213 16.3539 20.7454 -154.998 -1.98177 175.118
lowerback -31.3919 -2.94516 -10.4396
upperback -0.798544 -0.676434 -1.03677
thorax 15.5255 -1.31622 4.11663
lowerneck -6.97938 -2.31353 -0.0247617
upperneck 1.19185 -3.26496 3.21783
head 1.61459 -1.59004 0.897991
rclavicle 6.80837e-015 -3.61788e-014
rhumerus -33.5387 -19.4058 -79.5729
rradius 30.3154
rwrist -0.406906
rhand -10.0863 -416.246
rfingers 7.12502
rthumb 15.9006 274.386
lclavicle 6.80837e-015 -3.61788e-014
lhumerus -27.5436 2.63264 83.0077
lradius 22.2243
lwrist -3.84561
lhand -21.2674 -13.1016
lfingers 7.12502
lthumb 5.11612 16.8166
rfemur -22.1907 7.40048 15.9203
rtibia 6.52296
rfoot -17.5612 -2.46839
rtoes -18.5482
lfemur -22.9371 -10.4228 -24.8808
ltibia 9.74181
lfoot -8.03902 -3.43714
ltoes -32.7339
40
root 16.3177 16.3545 20.7536 -155.071 -2.43409 175.208
lowerback -31.1653 -3.04679 -10.2388
upperback -0.777428 -0.899867 -0.956386
thorax 15.4877 -1.39258 4.01364
lowerneck -7.01653 -2.32936 -0.0792354
upperneck 1.13456 -3.28177 3.22619
head 1.60425 -1.59955 0.90911
rclavicle -1.73937e-015 -2.10712e-014
rhumerus -33.4296 -19.1492 -79.7521
rradius 30.4684
rwrist -0.961571
rhand -5.81785 -418.588
rfingers 7.12502
rthumb 20.0074 272.422
lclavicle -1.73937e-015 -2.10712e-014
lhumerus -27.4974 2.99143 82.9165
lradius 22.0944
lwrist -4.24512
lhand -21.5294 -13.0615
lfingers 7.12502
lthumb 4.86316 16.8627
rfemur -21.9718 7.53238 16.0073
rtibia 6.33778
rfoot -17.5669 -3.00353
rtoes -18.1413
lfemur -22.9912 -10.8176 -24.6633
ltibia 9.87701
lfoot -8.01905 -3.42764
ltoes -32.959
41
root 16.3263 16.3489 20.748 -154.956 -2.06859 175.189
lowerback -31.4035 -2.99738 -10.3797
upperback -0.783377 -0.767564 -0.967816
thorax 15.5648 -1.35334 4.12328
lowerneck -6.85643 -2.2698 -0.197247
upperneck 1.03034 -3.19519 3.37948
head 1.54669 -1.55724 0.982549
rclavicle -5.2181e-015 -1.51076e-014
rhumerus -33.4742 -19.3204 -79.63
rradius 30.1998
rwrist -0.704693
rhand -7.90208 -412.178
rfingers 7.12502
rthumb 18.0031 278.635
lclavicle -5.2181e-015 -1.51076e-014
lhumerus -27.5078 3.25082 82.7834
lradius 21.9267
lwrist -4.54817
lhand -21.8374 -13.0128
lfingers 7.12502
lthumb 4.56581 16.918
rfemur -22.3201 7.43468 16.0391
rtibia 6.70903
rfoot -17.777 -2.59302
rtoes -18.0344
lfemur -23.0288 -10.3853 -24.7521
ltibia 9.76189
lfoot -8.00528 -3.53133
ltoes -33.4563
42
root 16.3302 16.3525 20.7484 -155.073 -2.00901 175.219
lowerback -31.2504 -2.97005 -10.4012
upperback -0.785432 -0.739594 -0.954281
thorax 15.491 -1.33756 4.16622
lowerneck -6.50229 -2.11902 -0.475672
upperneck 0.867658 -2.9739 3.6529
head 1.43929 -1.44828 1.12767
rclavicle -7.05686e-015 7.55382e-015
rhumerus -33.5751 -19.4084 -79.5183
rradius 30.0397
rwrist -0.530208
rhand -8.66843 -414.444
rfingers 7.12502
rthumb 17.2656 276.303
lclavicle -7.05686e-015 7.55382e-015
lhumerus -27.5088 3.19143 82.7597
lradius 21.7345
lwrist -4.50186
lhand -21.9202 -12.9741
lfingers 7.12502
lthumb 4.4858 16.9584
rfemur -22.2277 7.43096 16.1171
rtibia 6.79436
rfoot -17.7671 -2.52426
rtoes -18.5351
lfemur -22.8609 -10.3221 -24.7449
ltibia 9.66615
lfoot -7.96477 -3.53809
ltoes -33.2464
43
root 16.3337 16.352 20.7496 -155.088 -1.94208 175.262
lowerback -31.1861 -2.94209 -10.4005
upperback -0.824631 -0.720593 -0.929587
thorax 15.4136 -1.32654 4.20295
lowerneck -6.09617 -1.9181 -0.866509
upperneck 0.668335 -2.67891 3.98588
head 1.31205 -1.30322 1.3133
rclavicle -1.02871e-014 2.14687e-014
rhumerus -33.6991 -19.5499 -79.3702
rradius 29.8921
rwrist -0.34889
rhand -8.81707 -409.93
rfingers 7.12502
rthumb 17.1225 280.805
lclavicle -1.02871e-014 2.14687e-014
lhumerus -27.5443 3.20362 82.7223
lradius 21.5175
lwrist -4.56335
lhand -21.8783 -12.7603
lfingers 7.12502
lthumb 4.52633 17.1713
rfemur -22.2666 7.42648 16.1948
rtibia 6.85835
rfoot -17.8096 -2.42573
rtoes -18.8602
lfemur -22.8524 -10.1596 -24.7314
ltibia 9.61207
lfoot -7.9044 -3.59028
ltoes -33.7505
